<?xml version="1.0" standalone="no"?>
<!DOCTYPE svg PUBLIC "-//W3C//DTD SVG 20010904//EN"
 "http://www.w3.org/TR/2001/REC-SVG-20010904/DTD/svg10.dtd">
<svg version="1.0" xmlns="http://www.w3.org/2000/svg"
 width="312.000000pt" height="308.000000pt" viewBox="0 0 312.000000 308.000000"
 preserveAspectRatio="xMidYMid meet">
<metadata>
Created by potrace 1.16, written by Peter Selinger 2001-2019
</metadata>
<g transform="translate(0.000000,308.000000) scale(0.100000,-0.100000)"
fill="#000000" stroke="none">
<path d="M0 1540 l0 -1540 733 1 c402 1 703 5 667 9 -36 5 -85 13 -110 18 -25
6 -76 18 -114 26 -127 29 -380 144 -491 224 -78 56 -207 166 -240 204 -212
241 -358 531 -396 783 -35 235 -31 388 13 595 74 351 293 692 578 902 67 49
194 128 205 128 3 0 50 20 104 45 218 98 460 139 726 123 143 -9 246 -29 376
-74 315 -109 532 -267 730 -531 38 -50 84 -118 102 -150 43 -75 118 -247 121
-276 1 -13 5 -28 9 -34 17 -28 49 -150 63 -244 15 -104 18 -384 4 -424 -4 -11
-11 -42 -14 -68 -4 -26 -11 -60 -17 -75 -6 -15 -10 -28 -9 -30 7 -11 -15 -84
-30 -100 -10 -11 -17 -22 -14 -25 5 -4 -44 -121 -91 -217 -57 -115 -208 -317
-293 -389 -26 -22 -70 -60 -98 -85 -188 -160 -532 -298 -809 -325 -59 -5 172
-9 663 -10 l752 -1 0 1540 0 1540 -1560 0 -1560 0 0 -1540z"/>
<path d="M1420 2874 c-78 -10 -199 -36 -275 -60 -110 -35 -319 -144 -407 -211
-165 -125 -303 -300 -402 -507 -103 -216 -132 -360 -123 -621 5 -152 9 -181
37 -275 117 -394 361 -695 694 -859 339 -167 641 -197 986 -99 108 30 335 133
359 162 7 9 19 16 26 16 35 0 239 192 307 290 118 168 160 247 214 399 51 146
64 213 70 371 5 115 3 167 -11 250 -47 284 -189 560 -393 766 -82 83 -121 113
-247 189 -75 46 -197 105 -215 105 -6 0 -21 5 -33 12 -12 7 -26 13 -32 14 -5
1 -46 12 -90 23 -44 11 -93 23 -110 26 -38 8 -308 15 -355 9z m255 -394 c18
-11 47 -36 63 -54 25 -29 30 -44 35 -112 10 -135 46 -207 120 -243 35 -17 70
-22 178 -27 219 -10 203 39 206 -664 3 -548 2 -556 -19 -605 -29 -68 -61 -109
-111 -144 -86 -59 -108 -61 -579 -61 -292 0 -444 4 -475 12 -66 16 -124 51
-175 106 -83 88 -79 44 -76 857 l3 720 23 48 c41 85 128 155 219 176 21 4 154
9 296 10 246 2 260 1 292 -19z m199 -12 c17 -12 76 -64 131 -117 55 -53 128
-120 163 -149 34 -30 62 -58 62 -63 0 -5 -54 -9 -120 -9 -132 0 -168 9 -210
54 -22 25 -26 38 -30 131 l-5 104 -40 42 -40 42 29 -7 c17 -4 44 -17 60 -28z"/>
<path d="M1135 2305 c-81 -44 -110 -108 -80 -181 48 -120 229 -117 266 5 33
109 -92 226 -186 176z"/>
<path d="M1527 2042 c-3 -4 -7 -180 -8 -390 -2 -389 0 -412 36 -412 6 0 19 8
29 18 15 17 16 56 14 403 l-3 384 -32 3 c-17 2 -34 -1 -36 -6z"/>
<path d="M1302 1872 c-17 -11 -28 -453 -12 -482 13 -25 56 -26 68 -2 13 27 15
447 2 471 -11 22 -35 27 -58 13z"/>
<path d="M1771 1866 c-9 -10 -12 -83 -12 -246 0 -231 4 -260 35 -260 7 0 20 6
30 13 16 12 18 35 19 249 2 215 0 237 -15 247 -24 15 -43 14 -57 -3z"/>
<path d="M1653 1832 c-17 -16 -18 -31 -13 -212 l5 -195 35 0 35 0 1 185 c1
102 0 193 -3 203 -8 29 -38 39 -60 19z"/>
<path d="M1420 1825 c-13 -16 -22 -331 -10 -375 5 -19 13 -25 36 -25 l29 0 6
185 c5 148 3 190 -8 208 -16 25 -35 28 -53 7z"/>
<path d="M1187 1758 c-14 -11 -17 -35 -19 -141 -3 -118 -1 -130 16 -143 53
-38 69 2 64 159 -2 91 -6 120 -18 127 -20 13 -23 12 -43 -2z"/>
<path d="M1892 1758 c-15 -15 -17 -251 -2 -279 11 -20 36 -24 60 -10 22 15 16
271 -7 289 -21 15 -36 15 -51 0z"/>
<path d="M1325 1110 c-126 -3 -231 -7 -231 -8 -12 -16 -9 -35 7 -56 l20 -26
445 0 c432 0 445 1 464 20 17 17 18 24 10 41 -6 11 -17 22 -23 24 -24 7 -469
10 -692 5z"/>
<path d="M1098 883 c-18 -20 -8 -63 14 -63 7 0 205 -3 440 -6 234 -4 438 -4
452 0 30 7 45 48 26 71 -11 13 -77 15 -465 15 -418 0 -453 -1 -467 -17z"/>
</g>
</svg>
