<?xml version="1.0" standalone="no"?>
<!DOCTYPE svg PUBLIC "-//W3C//DTD SVG 20010904//EN"
 "http://www.w3.org/TR/2001/REC-SVG-20010904/DTD/svg10.dtd">
<svg version="1.0" xmlns="http://www.w3.org/2000/svg"
 width="900.000000pt" height="888.000000pt" viewBox="0 0 900.000000 888.000000"
 preserveAspectRatio="xMidYMid meet">
<metadata>
Created by potrace 1.10, written by Peter Selinger 2001-2011
</metadata>
<g transform="translate(0.000000,888.000000) scale(0.100000,-0.100000)"
fill="#000000" stroke="none">
<path d="M4165 8280 c-11 -5 -47 -9 -80 -10 -33 0 -96 -7 -140 -15 -44 -8 -92
-15 -107 -15 -15 0 -48 -7 -74 -16 -48 -16 -105 -28 -209 -43 -33 -5 -90 -20
-126 -35 -36 -14 -70 -26 -76 -26 -15 0 -112 -30 -148 -45 -16 -7 -50 -21 -75
-30 -55 -20 -106 -43 -142 -61 -14 -8 -31 -14 -37 -14 -5 0 -32 -13 -58 -28
-26 -15 -83 -43 -127 -62 -43 -18 -115 -55 -160 -80 -44 -26 -121 -68 -171
-95 -111 -59 -169 -97 -260 -169 -38 -31 -93 -71 -121 -90 -28 -19 -77 -57
-110 -85 -32 -28 -64 -51 -70 -51 -7 0 -31 -26 -55 -57 -23 -32 -99 -114 -168
-183 -74 -73 -165 -177 -219 -250 -50 -69 -103 -138 -117 -155 -14 -16 -25
-35 -25 -41 0 -6 -7 -17 -16 -25 -9 -7 -29 -40 -46 -73 -29 -58 -42 -79 -116
-194 -18 -29 -52 -92 -74 -140 -83 -180 -97 -208 -122 -245 -14 -21 -26 -42
-26 -46 0 -5 -13 -35 -30 -67 -16 -32 -30 -65 -30 -73 0 -7 -11 -39 -24 -70
-32 -78 -84 -238 -92 -286 -4 -22 -13 -49 -20 -60 -8 -11 -14 -31 -14 -45 0
-14 -7 -43 -14 -65 -8 -22 -16 -74 -20 -115 -3 -41 -10 -91 -16 -110 -5 -19
-10 -53 -10 -75 -1 -22 -7 -66 -14 -97 -17 -71 -20 -654 -5 -798 6 -52 12
-117 14 -145 10 -134 19 -185 40 -240 12 -33 30 -94 39 -135 10 -41 24 -95 32
-120 7 -25 22 -74 33 -110 10 -36 30 -90 43 -120 14 -30 28 -68 32 -85 4 -16
31 -79 60 -140 29 -60 63 -135 76 -165 19 -48 48 -101 165 -315 13 -22 36 -66
53 -97 16 -31 50 -83 74 -115 24 -32 72 -101 107 -152 90 -135 150 -207 304
-366 222 -229 336 -335 360 -335 8 0 22 -10 33 -22 10 -11 49 -40 85 -64 36
-24 73 -53 81 -66 17 -25 193 -134 273 -169 28 -12 64 -32 80 -44 37 -27 166
-93 255 -129 36 -15 83 -36 105 -46 22 -11 87 -38 145 -60 58 -23 109 -45 115
-51 5 -5 19 -9 32 -9 12 0 59 -13 105 -30 45 -16 93 -30 107 -30 14 0 69 -13
121 -30 165 -51 412 -96 620 -112 305 -23 767 0 914 47 27 8 73 15 101 15 29
0 86 11 126 24 41 13 90 27 109 30 19 4 46 11 60 16 14 4 77 22 140 40 63 18
127 38 142 46 14 8 37 14 51 14 13 0 30 7 37 15 7 8 20 15 30 15 10 0 23 7 30
15 7 8 22 15 34 15 12 0 30 6 41 13 11 7 56 28 100 46 44 18 89 38 100 44 186
100 268 144 305 162 25 13 54 33 65 45 11 12 64 44 117 71 53 27 102 57 107
68 6 10 31 31 56 45 25 15 45 31 45 36 0 5 21 24 48 41 26 18 54 38 62 45 18
15 149 146 210 211 25 26 56 57 68 68 63 56 221 237 241 277 7 14 31 48 53 74
22 27 47 62 55 79 9 16 32 49 52 71 43 50 75 97 97 144 9 19 29 53 44 75 32
48 164 299 175 335 4 14 24 61 45 105 75 161 176 442 234 650 7 28 21 75 29
105 9 30 20 98 27 150 6 52 15 126 20 163 26 181 34 605 15 792 -9 88 -57 390
-64 404 -5 9 -11 44 -14 79 -3 34 -10 68 -16 75 -6 7 -24 69 -42 138 -17 68
-35 129 -39 134 -11 13 -39 90 -51 140 -6 21 -21 61 -35 88 -13 27 -24 57 -24
67 0 9 -7 23 -15 30 -8 7 -15 17 -15 23 0 10 -82 186 -106 227 -8 14 -30 59
-49 100 -19 41 -42 86 -50 100 -9 14 -28 47 -43 74 -15 26 -46 74 -69 106 -24
32 -43 61 -43 65 0 4 -12 22 -27 40 -16 18 -39 50 -53 70 -143 207 -399 492
-575 640 -32 28 -79 69 -103 92 -24 23 -73 58 -108 77 -35 20 -96 62 -136 94
-40 33 -117 81 -171 107 -54 26 -110 58 -125 70 -28 23 -167 95 -184 95 -5 0
-40 18 -77 40 -37 22 -76 40 -88 40 -11 0 -26 7 -33 15 -7 8 -30 20 -51 25
-22 6 -39 15 -39 19 0 5 -32 17 -71 26 -39 10 -90 28 -114 41 -24 12 -65 26
-92 30 -26 3 -52 10 -58 14 -18 13 -119 43 -170 51 -27 4 -81 17 -120 29 -38
12 -117 29 -175 37 -58 8 -136 19 -175 24 -94 13 -765 21 -790 9z m571 -1095
c27 -4 55 -18 80 -39 22 -18 53 -40 69 -49 43 -23 160 -137 180 -177 12 -23
20 -74 26 -154 19 -260 27 -319 64 -424 19 -56 39 -110 44 -120 5 -9 12 -24
15 -32 19 -51 90 -134 154 -182 66 -50 107 -70 177 -88 106 -26 143 -31 245
-31 58 1 206 -4 330 -10 243 -12 253 -15 315 -76 38 -39 62 -89 92 -196 l25
-92 9 -1500 c4 -825 5 -1531 2 -1570 -8 -104 -24 -155 -109 -333 -34 -72 -60
-109 -118 -170 -142 -147 -257 -217 -443 -268 l-128 -36 -995 -2 c-1410 -3
-1574 3 -1740 61 -241 85 -531 365 -579 560 -5 21 -17 57 -25 81 -15 39 -16
244 -17 2020 0 1087 3 2002 6 2032 11 87 44 186 101 305 45 95 64 122 136 195
46 47 106 103 133 124 84 65 257 136 400 164 28 6 276 11 565 12 283 1 515 2
516 3 5 4 432 -3 470 -8z m609 -46 c33 -21 82 -53 110 -71 39 -26 371 -343
554 -529 20 -20 47 -40 60 -44 13 -4 74 -55 135 -113 61 -58 135 -128 164
-156 36 -34 52 -56 50 -70 -3 -21 -6 -21 -353 -18 -210 3 -366 8 -390 15 -113
31 -237 135 -269 227 -17 48 -20 85 -21 275 -1 154 -6 234 -15 265 -17 54 -68
126 -144 200 -63 61 -60 75 14 64 27 -3 69 -21 105 -45z"/>
<path d="M3360 6674 c-98 -35 -186 -87 -248 -147 -66 -63 -90 -102 -101 -168
-19 -114 -16 -137 32 -269 36 -96 180 -220 255 -220 10 0 33 -7 51 -16 56 -28
133 -15 242 40 52 26 103 55 113 65 30 26 89 123 97 161 5 19 14 58 20 86 11
44 10 58 -4 96 -9 24 -17 50 -17 57 0 58 -112 196 -207 255 -70 43 -192 74
-233 60z m150 -264 c50 -26 80 -88 80 -169 0 -70 -24 -113 -79 -141 -77 -39
-141 -26 -218 45 -72 67 -72 176 -1 242 59 55 139 63 218 23z"/>
<path d="M4436 5901 c-45 -9 -66 -60 -68 -162 -1 -46 1 -419 4 -829 4 -453 2
-837 -4 -979 -11 -254 -7 -287 36 -334 44 -47 130 -30 181 37 l24 32 1 1088
c2 1060 1 1090 -18 1115 -27 37 -83 48 -156 32z"/>
<path d="M3750 5388 c-56 -39 -62 -73 -51 -308 6 -133 6 -280 0 -420 -6 -118
-9 -307 -7 -420 3 -181 5 -210 23 -244 26 -52 81 -73 140 -54 31 10 44 23 63
60 24 46 24 51 13 135 -8 66 -8 171 0 413 8 217 8 402 2 557 l-9 233 -34 35
c-41 43 -89 47 -140 13z"/>
<path d="M5112 5384 c-19 -15 -38 -38 -44 -53 -7 -20 -14 -1009 -8 -1325 0
-10 15 -33 34 -52 28 -28 41 -34 79 -34 56 0 106 32 130 84 17 36 17 50 6 215
-8 122 -10 322 -6 653 l6 477 -37 31 c-49 40 -112 42 -160 4z"/>
<path d="M4782 5303 c-12 -2 -34 -20 -48 -39 -27 -34 -27 -35 -19 -162 4 -70
7 -311 6 -535 -1 -449 -1 -451 60 -483 40 -20 104 -10 135 22 l24 23 0 543
c-1 525 -1 545 -21 577 -10 17 -35 39 -54 47 -35 14 -42 15 -83 7z"/>
<path d="M4097 5269 c-52 -40 -52 -36 -52 -591 0 -506 0 -517 21 -544 52 -71
103 -79 164 -27 l30 25 0 383 c0 211 5 440 11 510 13 150 6 179 -54 230 -47
40 -79 44 -120 14z"/>
<path d="M5463 5069 c-52 -33 -55 -54 -50 -433 4 -335 5 -344 26 -375 44 -62
89 -75 150 -45 18 9 42 30 52 48 19 28 20 42 13 165 -3 74 -7 234 -8 355 -2
150 -6 228 -15 243 -14 27 -80 63 -113 63 -13 0 -37 -10 -55 -21z"/>
<path d="M3415 5062 c-61 -38 -59 -28 -62 -361 -2 -187 2 -333 8 -374 11 -67
13 -70 57 -98 25 -16 55 -29 66 -29 28 1 60 28 82 70 16 32 18 67 19 370 0
360 -4 394 -50 424 -32 21 -83 20 -120 -2z"/>
<path d="M3034 4749 c-43 -34 -53 -62 -46 -129 10 -93 51 -140 123 -140 47 0
115 73 124 131 9 64 -21 130 -72 157 -39 21 -87 14 -129 -19z"/>
<path d="M5831 4758 c-25 -13 -53 -35 -64 -49 -24 -34 -25 -108 0 -149 21 -37
97 -90 129 -90 42 0 84 26 105 65 39 72 14 212 -41 229 -55 17 -87 16 -129 -6z"/>
<path d="M4265 3200 c-132 -4 -412 -5 -623 -3 -339 4 -388 3 -433 -12 -52 -17
-89 -58 -89 -98 0 -32 38 -91 78 -120 l39 -29 1275 -1 1275 -2 37 29 c21 16
45 44 53 64 17 42 8 72 -42 126 -28 30 -39 36 -76 37 -24 0 -273 2 -554 4
-280 2 -553 5 -605 8 -52 2 -203 0 -335 -3z"/>
<path d="M4300 2580 l-1085 -5 -42 -28 c-49 -31 -60 -60 -43 -111 11 -35 60
-86 83 -86 24 -2 1340 -9 1942 -11 568 -3 623 -1 652 14 38 20 58 49 68 94 8
42 -15 85 -62 118 -37 25 -39 25 -233 23 -107 -2 -683 -5 -1280 -8z"/>
</g>
</svg>
